<?xml version="1.0" encoding="UTF-8" standalone="no"?>
<!-- Created with Inkscape (http://www.inkscape.org/) -->

<svg
   version="1.1"
   id="svg1"
   width="2730.6667"
   height="2730.6667"
   viewBox="0 0 2730.6667 2730.6667"
   sodipodi:docname="icon.eps"
   xmlns:inkscape="http://www.inkscape.org/namespaces/inkscape"
   xmlns:sodipodi="http://sodipodi.sourceforge.net/DTD/sodipodi-0.dtd"
   xmlns="http://www.w3.org/2000/svg"
   xmlns:svg="http://www.w3.org/2000/svg">
  <defs
     id="defs1" />
  <sodipodi:namedview
     id="namedview1"
     pagecolor="#ffffff"
     bordercolor="#000000"
     borderopacity="0.25"
     inkscape:showpageshadow="2"
     inkscape:pageopacity="0.0"
     inkscape:pagecheckerboard="0"
     inkscape:deskcolor="#d1d1d1">
    <inkscape:page
       x="0"
       y="0"
       inkscape:label="1"
       id="page1"
       width="2730.6667"
       height="2730.6667"
       margin="0"
       bleed="0" />
  </sodipodi:namedview>
  <g
     id="g1"
     inkscape:groupmode="layer"
     inkscape:label="1">
    <path
       id="path1"
       d="m 15788.6,17497 c -7.5,-7.8 -42.6,-47 -78.6,-88 -35.7,-40.7 -117,-128 -180.5,-194 -63.4,-65.9 -207.8,-217 -320,-335 -112.2,-118 -222.5,-233.3 -244.5,-255.5 -22,-22.2 -127.9,-132.5 -235,-244.5 -107.1,-112 -260.4,-271 -340,-352.5 -80.1,-82 -146.5,-152.5 -148.4,-157.5 -3.1,-8.2 25.2,-87 62.9,-175 17.2,-40.2 47.1,-121 85.1,-230 17.4,-50 35.4,-99.8 40.4,-112 7.7,-18.6 105.1,-345 130.7,-438 4.6,-16.6 23.8,-86 42.8,-155 19,-68.7 55.7,-206 81.5,-305 25.9,-99 59.5,-227.2 74.7,-285 120.2,-456 183.1,-687.2 216.9,-798 l 25.4,-83 174.5,-84.5 c 96,-46.5 176.1,-84.5 178,-84.5 1.9,0 52,-22.8 112,-51 60,-28.2 146.5,-68 193.5,-89 47,-21 115.4,-51.9 153,-69 37,-16.9 69.6,-31 71.5,-31 1.9,0 37,-15.5 77,-34 40.2,-18.6 107.5,-48.7 148.5,-66.5 40.9,-17.7 117.5,-52.3 168.5,-76 51,-23.7 95.8,-43.5 98.5,-43.5 2.7,0 28.5,-11.9 56.5,-26 28,-14.1 74.3,-35 101.5,-45.7 48.3,-19 221,-94 334,-145 94,-42.5 100.1,-41.5 148.7,23.7 24.1,32.2 79.3,98 124.3,148 45,50 110.5,123.3 147.3,165 79.6,90 153.7,173 160.7,180 2.8,2.8 38.5,43 80,90 41.5,47 77.5,87.2 80.5,90 3,2.7 29.9,33.5 59,67.5 l 53.5,62.5 -63.5,87.5 c -34.8,48 -66,89.8 -69,92.5 -3,2.8 -25.7,32 -50.5,65 -24.7,33 -50.6,66.1 -57.5,73.5 -6.8,7.4 -24.9,30 -40,50 -15.1,20 -30.2,38.8 -33.5,41.5 -3.3,2.8 -38.1,46.5 -77.5,97.5 -39.4,51 -117.6,149.5 -174.1,219.5 -104.2,128.9 -259.9,328 -397.1,508 -42.2,55.3 -128.6,167 -193.3,250 -64.7,83 -149.5,192 -189.8,244 -62.7,81 -220.5,281.7 -262.5,334 -7.6,9.4 -46.2,58.5 -86.2,109.5 -40.1,51.2 -114.9,146.5 -167.5,213.5 -142.1,181 -145.9,186.7 -142.8,211 3,24 70.6,158 102.9,204 10.5,15 18.9,29.2 18.9,32 0,2.7 36.9,65.5 81.5,138.5 44.6,73 112.1,185.6 149,248.5 37,63 91.2,153.4 120,200 29,47 61.2,100.6 72,120 18.4,32.8 57.1,99 177.1,303 28.9,49 50.4,90.8 47.9,93 -2.4,2.1 -14,-4.1 -25,-13.5 -11,-9.4 -29.3,-24.6 -39.5,-32.8 -55.6,-44.7 -283,-234.4 -343,-286.1 -13.8,-11.9 -77,-63.5 -141,-115.1 -64,-51.6 -140.2,-114.2 -170,-139.8 -265,-227 -476,-402.9 -515,-429.2 -12.6,-8.5 -55,-46.1 -94,-83.5 -72,-68.9 -96.4,-80.7 -64.3,-31 25.7,39.8 48.4,81 90.6,165 20.6,41 40.4,77.3 43.7,80 3.3,2.8 14.1,23 24,45 10,22.1 37.3,78 61.2,125 76.1,150 147,292.5 189,380 22.6,47 44.2,86.6 48.3,88.5 4.1,1.9 7.5,8.5 7.5,14.5 0,7.9 221.7,465 256.6,529 7,12.8 -14.4,9 -28,-5"
       style="fill:#000000;fill-opacity:1;fill-rule:nonzero;stroke:none"
       transform="matrix(0.13333333,0,0,-0.13333333,0,2730.6667)" />
    <path
       id="path2"
       d="m 14058.5,15757 c -31.1,-23.1 -103,-76.1 -160,-118 -56.7,-41.7 -164.5,-121.2 -238.5,-176 -74,-54.8 -177.9,-130.3 -230,-167 -171,-120.5 -211.5,-149.7 -355,-255.9 -78,-57.7 -195.2,-143.5 -260,-190.4 -147,-106.2 -382,-279.1 -455,-334.8 -30.4,-23.2 -122,-92 -205,-154.1 -251,-187.8 -257.6,-195.6 -214.5,-250.8 10.9,-14 19.5,-28.5 19.5,-33 0,-4.4 32.4,-54 71.8,-110 106.4,-151 261.1,-377.7 335.8,-492 36.1,-55.2 108.4,-164 161.4,-243 53,-79 109.4,-164.5 126,-191 16.3,-26 38,-59 47.5,-72 9.6,-13.2 125.1,-188 257,-389 131.9,-201 261.1,-396.5 287.5,-435 26.5,-38.7 103.2,-155 171.5,-260 159.9,-246.1 264.9,-405 436.8,-661 196.1,-292 187.3,-275.8 175.2,-321 -18.5,-69 -77.9,-322 -101.7,-433 -6.4,-30 -17.7,-75.5 -24.7,-100 -16.7,-58 -53.3,-204.2 -63.8,-255 -4.6,-22 -15.3,-67 -23.8,-100 -8.5,-32.84 -25,-103 -36.5,-155 -11.5,-52 -29.8,-130.08 -40.5,-172.5 -10.8,-43 -28.2,-112 -39,-155 -10.8,-43 -26.4,-104.21 -35,-137.5 -8.5,-33 -19.6,-80.25 -24.5,-105 -5,-24.92 -16.4,-74 -25.5,-110 -49.1,-194 -57.6,-227.16 -65.3,-255 -4.5,-16.36 -13.7,-55 -20.2,-85 -6.5,-30 -15.6,-66.36 -20,-80 -4.4,-13.89 -12.6,-45 -18.4,-70 -33.2,-143 -54.9,-233.73 -71.8,-300 -41.1,-162 -51.8,-205.7 -56.3,-230 -2.5,-13.75 -13.1,-61 -23.5,-105 -10.4,-44 -26.4,-116 -35.5,-160 -25.3,-123 -32.9,-156.79 -45,-200 -16.7,-60 -23.2,-111.61 -12.6,-100 5,5.48 65.1,89 133.1,185 68,96 126.7,177.26 130,180 3.3,2.74 62,84 130,180 68,96 126.7,177.26 130,180 3.4,2.8 21,27 40,55 18.9,27.78 60.9,86 94.5,131 33.3,44.58 109.5,148 169.4,230 140.3,192 189.4,257.95 196.1,263.8 3.3,2.83 17,21.2 30,40.2 13,19 27.9,39.57 32.4,45 7.8,9.2 120.9,164 153.4,210 7.9,11.04 55.2,76 105.8,145 177.2,242 194.6,265.89 250.7,345 30.9,43.64 91,127.5 132.2,184.5 41.2,57 75.5,113.6 75.5,124.5 0,19.3 -5,54 -31.4,216 -5.9,36 -14.2,89.5 -18.6,120 -4.4,30.5 -12.7,84 -18.5,120 -5.7,35.5 -15.5,99 -21.5,140 -22.6,154 -29.1,196.4 -39.9,260 -6.2,36 -15.1,91.8 -20.1,125 -5,33.2 -13.9,89 -20,125 -6.1,36 -15,91.8 -20,125 -5,33.2 -14.1,89 -20.5,125 -6.4,36 -15.1,89.5 -19.5,120 -4.4,30.5 -13.1,84 -19.5,120 -6.4,36 -15.6,89.5 -20.8,120 -13.1,78 -30,177.2 -40,235 -4.7,27.2 -13.5,78.5 -19.2,112.5 -5.7,34 -15.3,91 -21,125 -5.7,34 -14.8,89.9 -20,122.5 -5.2,33 -13.8,84.8 -19.1,115 -16.1,91.8 -46.3,272 -62,370 -5.8,36 -14.1,87.3 -18.7,115 -10.4,62.7 -26.6,165 -39.1,247 -5.3,35 -14.3,89.7 -20.1,123 -5.8,33.2 -14.7,89 -20,125 -5.3,36 -14.4,94 -20.5,130 -6.1,36 -15,91.8 -20,125 -5,33.2 -13.9,89 -20,125 -6.1,36 -15.2,92.9 -20.5,127.5 -5.2,34 -13.8,91 -19,125 -5.3,34.6 -14.2,91.5 -20,127.5 -5.8,36 -14.7,94 -20,130 -9,61.9 -17.9,117 -41.3,255 -5.6,33 -12.4,78 -15.2,100 -2.8,22.4 -9,62 -14.1,90 -14.5,79.3 -28.1,161 -50.1,300 -35.5,225 -40.9,258.2 -50,310 -4.8,27.3 -13.8,84 -19.8,125 -6,41 -15.3,91.3 -20.5,111 -5.3,20 -9.5,54.5 -9.5,77.5 0,27 -4.4,41.3 -12.5,41 -6.9,-0.3 -38,-19.5 -69,-42.5"
       style="fill:#000000;fill-opacity:1;fill-rule:nonzero;stroke:none"
       transform="matrix(0.13333333,0,0,-0.13333333,0,2730.6667)" />
    <path
       id="path3"
       d="m 11655,14029 c -32.9,-27.4 -104.5,-82.5 -158.5,-122 -53.9,-39.4 -158,-116.8 -230,-171 -72,-54.2 -188.1,-141.5 -256.5,-193 -69,-51.9 -140.7,-106.3 -160,-121.5 -19.4,-15.3 -75,-57.9 -125,-96 -50,-38.1 -121.8,-94.3 -161.5,-126.5 -39,-31.6 -81,-63.9 -92.5,-71 -22.3,-13.7 -22.5,-35 -1.4,-148 4.6,-24.6 13.6,-79 19.9,-120 6.3,-41 15.6,-99.9 20.5,-130 4.9,-30.1 14,-89 20,-130 6,-41 15.2,-99.9 20.3,-130 9.6,-56.9 33.7,-209 69.7,-440 11.5,-74 25,-157.6 29.9,-185 12.8,-72.1 27.3,-159 40.1,-240 6.1,-39 15.2,-94.4 20.4,-125 17,-99.3 74.2,-467 100.3,-645 5.8,-39 14.3,-92.1 19.3,-120 4.9,-27.3 14,-84 20,-125 6,-41 15.3,-102.2 20.5,-135 5.2,-33 18.5,-123 29.5,-200 11,-77 24.5,-168.1 30,-202.5 5.5,-34.5 14.9,-95 21,-135 6.1,-40 14.8,-92.67 19.5,-117.5 4.7,-24.75 13.6,-81 19.8,-125 11.7,-82.69 35.1,-234 69.1,-447 10.8,-68 24.7,-158.77 31.1,-203 6.3,-44.14 22.5,-145 36,-225 13.5,-80 28.8,-174.14 34,-210 5.3,-36 14.2,-91.77 20,-125 5.8,-33 14.4,-84.75 19.1,-115 18.8,-121 42.5,-269.48 56.6,-355 8.2,-50 18.8,-114.45 23.8,-145 4.9,-30.25 13.9,-82 20,-115 6.1,-33.23 15.2,-89 20.5,-125 5.2,-35.75 16,-101 24,-145 8,-44.16 23.5,-136 34.5,-205 11,-69 27.2,-167.56 36,-220 8.8,-52 20.1,-122.16 25,-155 4.9,-33 13.9,-87 20,-120 6.1,-33 15.1,-86.1 20,-118 4.9,-31.83 15.9,-95 24.2,-140 14.5,-77.83 36.4,-206 55.9,-327 4.9,-30 13.5,-80 19,-110 10.1,-54.63 42.3,-238 62.3,-355 13.3,-78 24,-137.16 37.6,-208 17.3,-90 31.2,-167.33 41.7,-232 13,-81 26.8,-159.57 38.6,-220 15.2,-78 31,-164.81 41.1,-225 9,-53.65 22.5,-133 40,-235 4.7,-27.5 13.5,-77 19.6,-110 6.1,-33 14.8,-87 19.5,-120 4.7,-33 13.9,-84.75 20.5,-115 6.5,-30 15.4,-75.45 19.5,-100 4.1,-24.68 22.2,-115 40,-200 17.8,-85 35.6,-173.06 39.4,-195 7.3,-43 17.2,-65 29.1,-65 4.4,0 23,55.5 41,122.5 18.1,67 36.8,136.09 41.3,152.5 12.8,46.12 26.8,102 50.2,200 11.9,50 25.3,103.33 30,120 4.7,16.5 12.8,48 18,70 5.1,21.65 14.5,59.5 20.5,82.5 6,23 15.1,59.71 20,80 5,20.93 13.9,56.5 20,80.5 18.6,73 29.1,115.6 41.2,167 6.6,28 15.5,63.2 20.1,80 7.8,28.29 15.5,58 39.7,155 5.5,22 14.5,58 20,80 5.5,22 14.1,56.88 19,77.5 4.9,20.63 13.7,55.5 19.5,77.5 5.9,22.4 15.3,62 21.5,90 6.2,28 15,65.4 20,85 28.7,111 42.8,169.2 50,205 4.4,22.16 15.4,69 24.5,105 9.1,36 21.2,85.08 27,110 5.8,25 14.3,58.33 19,75 4.7,16.67 17.8,70 29.5,120 11.7,50 25,105.55 30,125 5,19.36 13.7,56 19.5,82 23.1,103 33,143.77 40.6,168 4.3,13.75 13.5,52 20.4,85 6.9,33 18.3,82.5 25.5,110 16.4,63 22.8,89.36 35.2,145 10.8,48.31 15.1,66 48.6,200 11.7,47 25.7,102.88 31.2,125 5.5,22 14.3,53.73 19.5,70.5 5.3,17 9.5,40.02 9.5,52 0,12.15 3.9,31.5 9,44.5 4.9,12.65 14.4,50 21,83 6.6,33 15.6,71.25 20,85 4.4,13.64 13.3,50 19.7,80 13.3,63 47.1,208.45 60.3,260 5.1,19.6 13.8,57 20,85 6.2,28 15,65.4 20,85 4.9,19 11.7,48.71 15,65 3.3,16.5 10.1,48 15,70 4.9,22 11.7,53.5 15.1,70 8.6,43 24.6,113.63 35.1,155 4.8,19.16 13.6,56.5 19.3,82.5 5.7,26 14.9,66.96 20.2,90.5 9.4,41.86 43.2,194 60.5,272 4.9,22.22 13.2,60 18.8,85 5.5,24.55 15.2,70 21.5,100 6.3,30 15.4,70.91 20,90 8.1,33.23 17.1,73 39.6,175 5.5,25 14.1,63.89 19.4,87.5 5.2,23.18 14.7,67.5 21,97.5 6.3,30 15.1,70.91 19.5,90 4.4,19.09 13.2,60 19.5,90 6.3,30 15.8,74.32 21,97.5 5.1,23 13.9,62 19,85 5.3,23.5 18.4,80.5 29.4,127.5 27.1,115.68 47.7,209 82.6,375 16.2,77 33.3,155.8 38,175 4.6,19.1 14,60 20.5,90 6.5,30 16.5,73.2 21.9,95 21.4,87 21.2,112.8 -1.1,144 -11.5,16 -20.8,31.5 -20.8,34.5 0,3.1 -21.8,42.5 -49,88.5 -27.2,46 -58.4,99.7 -70,120.5 -11.8,21 -29.4,52 -40,70.5 -144.7,251 -206.3,358.1 -222.9,387 -10.9,19 -23.5,39.6 -27.6,45 -4.1,5.5 -27,46 -50.7,90 -49.8,92 -63.6,116.8 -112,200 -19.1,33 -46.1,80.3 -59.9,105 -50.6,91 -70.3,125.3 -77.5,135 -4,5.5 -21,35 -37.4,65 -16.6,30.5 -53,94.5 -81.5,143.5 -28.5,49 -51.5,89.8 -51.5,91.5 0,1.7 -32.1,58.5 -71.5,126.5 -39.4,68 -82.7,143.7 -96.5,168.5 -13.6,24.5 -39.1,70 -56,100 -16.9,30 -37.6,68.6 -45.5,85 -8.2,17 -21.8,40.8 -31.3,55 -16.7,24.8 -38.3,62 -87.2,150 -13.8,24.8 -49,86.5 -78.5,137.5 -29.5,51 -66.3,116.1 -82,145 -15.7,28.9 -65.8,115.5 -111.5,192.5 -45.6,77 -90.6,153.5 -100,170 -9.3,16.4 -31.3,54 -48.5,83 -17.2,29 -31.5,55 -31.5,57.5 0,2.5 -12.8,25.5 -28.7,51.5 -50,82 -80,135.6 -112,200 -19.9,40 -37.3,62.8 -47.8,62.5 -9.1,-0.3 -43.5,-23 -76.5,-50.5"
       style="fill:#000000;fill-opacity:1;fill-rule:nonzero;stroke:none"
       transform="matrix(0.13333333,0,0,-0.13333333,0,2730.6667)" />
    <path
       id="path4"
       d="m 10160,12866.5 c -57.9,-28.9 -188,-95.6 -290,-148.5 -101.51,-52.7 -273,-141.2 -380,-196.1 -394,-202.3 -475,-244.4 -485,-251.6 -5.52,-4 -104,-55.6 -220,-115.3 -116,-59.7 -232.38,-120.2 -260,-135.3 -52.53,-28.7 -171,-91.4 -345,-182.6 -58,-30.5 -125.14,-66.1 -150,-79.7 -77.41,-42.4 -209,-112 -355,-187.8 -77,-39.9 -162.5,-84.7 -190,-99.6 -27.69,-15 -108,-57.3 -180,-95 -72,-37.7 -134.46,-71.1 -140,-75 -5.52,-3.9 -75,-40.7 -155,-82.2 -165,-85.5 -265.25,-138.7 -330,-175.2 -45.69,-25.7 -106,-58.7 -203,-110.9 -101,-54.4 -96.02,-47.5 -95.6,-131.7 0.41,-80.5 -25.54,-214 -81.62,-420 -15.74,-57.8 -37.64,-149 -60.02,-250 -4.27,-19.2 -31.16,-125 -59.76,-235 -28.6,-110 -56.05,-218 -61,-240 -4.93,-21.91 -22.79,-92 -39.5,-155 -16.71,-63 -43.53,-164.74 -59.32,-225 -77.27,-295 -108.39,-411.77 -151.92,-570 -10.6,-38.5 -34.79,-133 -53.77,-210 -34.27,-139 -38.57,-155.42 -70.68,-270 -9.24,-33 -20.18,-75.75 -24.31,-95 -4.12,-19.25 -21.9,-89 -39.5,-155 -17.6,-66 -44.6,-171.75 -60,-235 -15.4,-63.25 -42.62,-169 -60.5,-235 -17.87,-66 -35.87,-135.75 -40,-155 -4.12,-19.25 -16.95,-71 -28.5,-115 -11.55,-44 -29.77,-116 -40.5,-160 -10.73,-44 -28.48,-113.75 -39.45,-155 -32.44,-122 -120.95,-471.66 -130.36,-515 -4.76,-21.91 -22.93,-92 -40.19,-155 -17.26,-63 -35.34,-130.82 -40,-150 -4.68,-19.27 -22.66,-90.5 -40,-158.5 -17.34,-68 -35.48,-141.93 -40.36,-164.5 -8.6,-39.86 -66.61,-259 -110.37,-417 -11.42,-41.25 -29.32,-111 -39.77,-155 -10.45,-44 -23.73,-96.87 -29.5,-117.5 -5.88,-21 -14.46,-51.8 -19.5,-70 -4.93,-17.79 -20.54,-75.5 -34.5,-127.5 -13.96,-52 -32.97,-122.16 -42.01,-155 -17.99,-65.38 -39.03,-145 -79.26,-300 -30.1,-116 -44.25,-163.05 -56.23,-187 -10.5,-21 -11.06,-48 -1,-48 3.88,0 17.04,14.5 29.5,32.5 12.21,17.64 37.24,48.5 54.74,67.5 75.53,82 294.51,316.21 308.76,330.23 8.25,8.13 45.9,50.77 83.66,94.77 100.02,116.53 195.52,222 316.02,349 57.7,60.81 152.12,163 208.82,226 56.7,63 151.55,167 209.78,230 153.4,166 349.02,380.16 406.48,445 17.26,19.48 115.47,126 239.71,260 66.75,72 142.62,154.54 170.03,185 27.58,30.64 78.73,86 115.5,125 36.3,38.5 121.57,133 189.5,210 67.93,77 128.45,144.35 134.5,149.67 11.1,9.75 124.83,131.33 229.5,245.33 27.55,30 68.23,75.45 89.5,100 63.62,73.41 317.84,357 390.84,436 5.63,6.09 39.55,44 76.07,85 122.02,137 359.38,399.07 435.65,481 26.99,29 32.37,40.89 24.84,55 -7.67,14.38 -140.6,184 -284.49,363 -87.61,109 -382,465.5 -470.69,570 -11.58,13.64 -41.67,50 -66.22,80 -24.55,30 -47.27,57.13 -50,59.68 -5.55,5.2 -251.81,303.32 -272.85,330.32 -61.28,78.64 -227.85,280 -301.1,364 -65.41,75 -136.05,168.5 -136.05,180 0,7.2 22,-6 40,-24 46.84,-46.8 140,-124.6 260,-217 76.87,-59.18 160,-125.62 260,-207.8 30.25,-24.86 100,-82.1 155,-127.2 55,-45.1 102.25,-84.47 105,-87.5 2.73,-3 30,-25.95 60,-50.5 30,-24.55 75.45,-63.86 100,-86.5 25,-23.05 60.55,-54.16 80,-70 19,-15.47 37.16,-30.79 39.73,-33.5 14.95,-15.78 200.27,-169.02 225.27,-186.27 39.43,-27.19 68,-33.48 200,-44.02 123.92,-9.88 289,-24.73 445,-40.03 132.75,-13.02 296,-26.08 745,-59.58 169,-12.61 338.92,-26.15 500,-39.85 131,-11.14 447.8,-29.5 452,-26.2 2.5,1.95 -11.3,293.95 -27.2,575.95 -5.4,96.25 -14.1,256 -19.3,355 -5.2,99.47 -14.2,265 -20,370 -5.8,104.5 -15,280 -20.6,390 -10.2,201.8 -21,394 -40.4,715 -13.1,216.2 -27.3,477 -39.3,720 -5.1,102 -11.5,216.4 -14.4,255 -5,67.4 -23.5,398 -29.1,520 -1.9,43 -6.8,60.6 -17.2,62 -8,1.1 -61.5,-21.5 -119.5,-50.5"
       style="fill:#000000;fill-opacity:1;fill-rule:nonzero;stroke:none"
       transform="matrix(0.13333333,0,0,-0.13333333,0,2730.6667)" />
    <path
       id="path5"
       d="m 6065,10744.3 c -11.14,-8.5 -51,-33.4 -90,-56.1 -70.52,-41.1 -137,-81.9 -275,-168.9 -41,-25.9 -95.4,-58.6 -120,-72.2 -107,-59.1 -138.57,-78.3 -148.08,-90.1 -27.46,-34.1 -97.75,-170 -156.21,-302 -27.01,-61 -67.64,-150.09 -91.21,-200 -23.61,-50 -61.17,-130 -84.5,-180 -23.1,-49.5 -68.1,-144 -100,-210 -31.9,-66 -73.75,-153.75 -93,-195 -19.29,-41.32 -88.85,-185 -154.93,-320 -162.53,-332 -277.58,-569.8 -319.33,-660 -52.3,-113 -136.6,-284.41 -142.74,-290.25 -2.8,-2.66 -10.5,-15.75 -17.5,-29.75 -7,-14 -17.78,-32.48 -24.5,-42 -6.35,-9 -8.94,-20.29 -5.5,-24 3.59,-3.86 32.5,17.88 64.5,48.5 31.8,30.43 133,115.82 224,189 90.96,73.15 265,218.71 385,322 120,103.29 259.68,223.08 309,265 50,42.5 92.16,78.72 94.85,81.5 29.08,30 336.34,289.55 364.15,307.62 13.56,8.81 36,71.38 36,100.38 0,19.87 8.04,60 30.47,152 4.64,19.04 15.6,63.5 24.03,97.5 8.43,34 22.57,91 31,125 8.43,34 19.61,78.46 24.5,97.5 4.95,19.25 18.94,80 31.09,135 20.77,94 80.25,334 99.14,400 26.43,92.3 33.02,117 58.77,220 5.5,22 14.5,58 20,80 5.5,22 14.05,58 19,80 4.89,21.8 18.35,66 29.5,97 21.95,61 16.18,71.8 -22.5,42.3"
       style="fill:#000000;fill-opacity:1;fill-rule:nonzero;stroke:none"
       transform="matrix(0.13333333,0,0,-0.13333333,0,2730.6667)" />
    <path
       id="path6"
       d="m 14370,8670 c -14.5,-28.93 -61.4,-99 -488.8,-730 -121.3,-179 -271.8,-401.37 -335,-495 -216.9,-321 -270.7,-399.68 -281.4,-411 -9,-9.67 -103.1,-153 -191.7,-292 -18.5,-29 -33.1,-56.42 -33.1,-62 0,-17.23 148.6,-220 285,-389 66.8,-82.71 67.8,-84 285.6,-366 84.9,-110 161.9,-209 171.1,-220 42.6,-50.91 378.9,-480 564.4,-720 64.1,-83 126.4,-163.4 139.4,-180 13,-16.57 95.6,-124 184.5,-240 88.9,-116 202.2,-263.04 253,-328.5 50.5,-65 100.6,-132.04 111.1,-148.5 36.5,-57.33 37.5,-24 5.9,197 -24.9,174 -30.5,212.57 -39.6,270 -5.1,32.8 -13.9,94 -19.4,135 -5.5,41 -15,109 -21,150 -6,41 -15.2,106.73 -20.3,145 -12.5,94 -27,195.43 -39.7,278 -16.5,107 -29.4,195.58 -41.1,282 -6,44 -14.7,104.75 -19.4,135 -4.7,30.25 -13.2,91 -19.1,135 -22.4,170 -29.7,222.07 -40,285 -11.1,67.63 -24.3,156 -40.9,273 -5.3,37.33 -13.9,98 -19.5,137 -5.6,39 -14.4,101 -20,140 -5.6,39 -14.4,101 -20,140 -5.6,39 -14.4,101 -20,140 -5.6,39 -14,99.89 -19,137.5 -4.9,37.13 -14.4,103.5 -21,147.5 -6.6,44 -16.2,110.6 -21.3,148 -14.3,105 -27.4,196.7 -38.4,270 -16.6,110 -29.4,197.75 -40.5,277 -22.1,158 -30.4,216.72 -40.5,285 -5.7,39 -14.3,101 -19.3,140 -5,39 -13.4,96.57 -19,130 -5.5,32.86 -15.9,98 -23,144 -7.1,46 -17.5,85.58 -23,87.5 -5.7,1.98 -16.5,-9.5 -25,-26.5"
       style="fill:#000000;fill-opacity:1;fill-rule:nonzero;stroke:none"
       transform="matrix(0.13333333,0,0,-0.13333333,0,2730.6667)" />
    <path
       id="path7"
       d="m 8736.5,8510.5 c -3.57,-74.47 -9.43,-244.5 -13,-377.5 l -6.5,-242 -81,-77.5 c -45,-43.05 -114.33,-108.61 -156,-147.5 -41.36,-38.61 -149,-142.21 -240,-231 -91,-88.79 -223.3,-216.5 -295,-284.74 -315,-299.83 -654.54,-640.31 -650.45,-652.26 2.47,-7.2 11.14,-42 19.45,-78 8.23,-35.64 31.26,-135 51,-220 19.74,-85 44.81,-192.26 55.5,-237.5 10.81,-45.72 28.21,-119.5 39.05,-165.5 87.84,-373 115.9,-494.82 160.49,-697 11.48,-52 24.81,-110.84 29.46,-130 4.64,-19.09 13.73,-60 20,-90 6.27,-30 16.05,-75.45 21.5,-100 5.55,-25 13.81,-62.78 18.57,-85 14.29,-66.66 27.56,-124 59.05,-255 62.01,-258 71.38,-299.5 71.38,-316 0,-39.12 26.29,0 71.24,106 26.71,63 66.85,152.53 88.76,198 22.17,46 40,85.9 40,89.5 0,3.58 87.19,182 194,397 106.81,215 210.63,426.45 231,470.5 20.39,44.08 90.77,190 156.76,325 117.8,241 160.9,330.35 250.86,520 72.1,152 173.71,363.59 247.32,515 37.44,77 77.98,162.5 90.11,190 24.27,55.06 59.93,132 125.12,270 48.99,103.7 111.53,237 161.87,345 19.31,41.43 57.34,122 84.96,180 27.62,58 64.77,136.33 83,175 18.1,38.4 51.51,109.5 74,157.5 22.49,48 41,89.76 41,92.5 0,12.81 107.38,236 169.34,352 18.7,35 31.44,65.45 28.66,68.5 -2.76,3.04 -83,9.76 -179,15 -96,5.24 -227.79,13.98 -294,19.5 -66,5.5 -152.4,10 -192,10 -39.67,0 -116,4.27 -170,9.5 -53.87,5.22 -166,11.08 -249,13 l -151,3.5 -6.5,-135.5"
       style="fill:#000000;fill-opacity:1;fill-rule:nonzero;stroke:none"
       transform="matrix(0.13333333,0,0,-0.13333333,0,2730.6667)" />
  </g>
</svg>
